<?xml version="1.0" standalone="no"?>
<!DOCTYPE svg PUBLIC "-//W3C//DTD SVG 20010904//EN"
 "http://www.w3.org/TR/2001/REC-SVG-20010904/DTD/svg10.dtd">
<svg version="1.0" xmlns="http://www.w3.org/2000/svg"
 width="100.000000pt" height="100.000000pt" viewBox="0 0 100.000000 100.000000"
 preserveAspectRatio="xMidYMid meet">

<g transform="translate(0.000000,100.000000) scale(0.100000,-0.100000)"
fill="#000000" stroke="none">
<path d="M471 938 c-10 -23 -39 -97 -65 -164 l-47 -121 -67 -7 c-37 -3 -96 -6
-132 -7 -86 -1 -153 -11 -157 -25 -3 -8 203 -187 260 -225 4 -3 -12 -83 -37
-178 -36 -140 -42 -173 -31 -178 8 -3 77 35 152 83 76 48 145 88 154 88 8 0
77 -39 152 -88 77 -50 143 -86 151 -83 12 5 7 36 -30 177 -25 95 -44 173 -42
174 39 28 268 221 268 227 0 16 -23 20 -187 30 -92 5 -169 11 -170 13 -2 2
-32 74 -66 161 -34 87 -68 160 -75 163 -7 2 -20 -14 -31 -40z m84 -175 c26
-71 53 -134 59 -140 8 -8 62 -15 159 -19 81 -4 147 -10 146 -13 0 -3 -50 -46
-110 -95 -61 -49 -113 -95 -116 -102 -3 -8 11 -76 31 -151 19 -75 34 -138 32
-140 -2 -2 -60 33 -130 78 l-126 81 -126 -81 c-69 -45 -128 -80 -130 -78 -2 2
12 63 31 135 19 73 35 139 35 147 0 8 -53 58 -117 112 l-118 98 150 8 c96 5
154 12 161 20 6 7 33 69 59 140 27 70 52 127 55 127 3 0 28 -57 55 -127z"/>
</g>
</svg>
